<?xml version="1.0" encoding="utf-8"?>
<!-- Generator: Adobe Illustrator 15.1.0, SVG Export Plug-In . SVG Version: 6.00 Build 0)  -->
<!DOCTYPE svg PUBLIC "-//W3C//DTD SVG 1.1//EN" "http://www.w3.org/Graphics/SVG/1.1/DTD/svg11.dtd">
<svg version="1.1" xmlns="http://www.w3.org/2000/svg" xmlns:xlink="http://www.w3.org/1999/xlink" x="0px" y="0px" width="612px"
	 height="792px" viewBox="0 0 612 792" enable-background="new 0 0 612 792" xml:space="preserve">
<g id="Layer_1">
	<g>
		<rect x="-1168.595" y="85" stroke="#000000" stroke-miterlimit="10" width="144" height="144"/>
		<rect x="-1141.595" y="113.8" fill="#FFFFFF" stroke="#000000" stroke-miterlimit="10" width="90" height="86.4"/>
		<rect x="-1111.595" y="142.6" stroke="#000000" stroke-miterlimit="10" width="30" height="28.801"/>
		<rect x="-1141.595" y="171.4" stroke="#000000" stroke-miterlimit="10" width="30" height="28.8"/>
		<rect x="-1111.595" y="171.4" stroke="#000000" stroke-miterlimit="10" width="30" height="28.8"/>
		<rect x="-1081.595" y="171.4" stroke="#000000" stroke-miterlimit="10" width="30" height="28.8"/>
	</g>
	<g>
		<rect x="-1017.395" y="85" stroke="#000000" stroke-miterlimit="10" width="144" height="144"/>
		<rect x="-990.395" y="113.8" fill="#FFFFFF" stroke="#000000" stroke-miterlimit="10" width="90" height="86.4"/>
		<rect x="-960.395" y="142.6" stroke="#000000" stroke-miterlimit="10" width="30" height="28.801"/>
		<rect x="-990.395" y="171.4" stroke="#000000" stroke-miterlimit="10" width="30" height="28.8"/>
		<rect x="-960.395" y="171.4" stroke="#000000" stroke-miterlimit="10" width="30" height="28.8"/>
		<rect x="-930.395" y="171.4" stroke="#000000" stroke-miterlimit="10" width="30" height="28.8"/>
	</g>
	<g>
		<rect x="-866.195" y="85" stroke="#000000" stroke-miterlimit="10" width="144" height="144"/>
		<rect x="-839.195" y="113.8" fill="#FFFFFF" stroke="#000000" stroke-miterlimit="10" width="90" height="86.4"/>
		<rect x="-809.195" y="142.6" stroke="#000000" stroke-miterlimit="10" width="30" height="28.801"/>
		<rect x="-839.195" y="171.4" stroke="#000000" stroke-miterlimit="10" width="30" height="28.8"/>
		<rect x="-809.195" y="171.4" stroke="#000000" stroke-miterlimit="10" width="30" height="28.8"/>
		<rect x="-779.195" y="171.4" stroke="#000000" stroke-miterlimit="10" width="30" height="28.8"/>
	</g>
	<g>
		<rect x="-1168.595" y="236.2" stroke="#000000" stroke-miterlimit="10" width="144" height="144"/>
		<rect x="-1141.595" y="265" fill="#FFFFFF" stroke="#000000" stroke-miterlimit="10" width="90" height="86.4"/>
		<rect x="-1111.595" y="293.8" stroke="#000000" stroke-miterlimit="10" width="30" height="28.801"/>
		<rect x="-1141.595" y="322.601" stroke="#000000" stroke-miterlimit="10" width="30" height="28.8"/>
		<rect x="-1111.595" y="322.601" stroke="#000000" stroke-miterlimit="10" width="30" height="28.8"/>
		<rect x="-1081.595" y="322.601" stroke="#000000" stroke-miterlimit="10" width="30" height="28.8"/>
	</g>
	<g>
		<rect x="-1017.395" y="236.2" stroke="#000000" stroke-miterlimit="10" width="144" height="144"/>
		<rect x="-990.395" y="265" fill="#FFFFFF" stroke="#000000" stroke-miterlimit="10" width="90" height="86.4"/>
		<rect x="-960.395" y="293.8" stroke="#000000" stroke-miterlimit="10" width="30" height="28.801"/>
		<rect x="-990.395" y="322.601" stroke="#000000" stroke-miterlimit="10" width="30" height="28.8"/>
		<rect x="-960.395" y="322.601" stroke="#000000" stroke-miterlimit="10" width="30" height="28.8"/>
		<rect x="-930.395" y="322.601" stroke="#000000" stroke-miterlimit="10" width="30" height="28.8"/>
	</g>
	<g>
		<rect x="-866.195" y="236.2" stroke="#000000" stroke-miterlimit="10" width="144" height="144"/>
		<rect x="-839.195" y="265" fill="#FFFFFF" stroke="#000000" stroke-miterlimit="10" width="90" height="86.4"/>
		<rect x="-809.195" y="293.8" stroke="#000000" stroke-miterlimit="10" width="30" height="28.801"/>
		<rect x="-839.195" y="322.601" stroke="#000000" stroke-miterlimit="10" width="30" height="28.8"/>
		<rect x="-809.195" y="322.601" stroke="#000000" stroke-miterlimit="10" width="30" height="28.8"/>
		<rect x="-779.195" y="322.601" stroke="#000000" stroke-miterlimit="10" width="30" height="28.8"/>
	</g>
	<g>
		<rect x="-1168.596" y="387.4" stroke="#000000" stroke-miterlimit="10" width="144" height="144"/>
		<rect x="-1141.596" y="416.2" fill="#FFFFFF" stroke="#000000" stroke-miterlimit="10" width="90" height="86.4"/>
		<rect x="-1111.596" y="444.999" stroke="#000000" stroke-miterlimit="10" width="30" height="28.802"/>
		<rect x="-1141.596" y="473.801" stroke="#000000" stroke-miterlimit="10" width="30" height="28.8"/>
		<rect x="-1111.596" y="473.801" stroke="#000000" stroke-miterlimit="10" width="30" height="28.8"/>
		<rect x="-1081.596" y="473.801" stroke="#000000" stroke-miterlimit="10" width="30" height="28.8"/>
	</g>
	<g>
		<rect x="-1017.396" y="387.4" stroke="#000000" stroke-miterlimit="10" width="144.001" height="144"/>
		<rect x="-990.396" y="416.2" fill="#FFFFFF" stroke="#000000" stroke-miterlimit="10" width="90.001" height="86.4"/>
		<rect x="-960.396" y="444.999" stroke="#000000" stroke-miterlimit="10" width="30" height="28.802"/>
		<rect x="-990.396" y="473.801" stroke="#000000" stroke-miterlimit="10" width="30" height="28.8"/>
		<rect x="-960.396" y="473.801" stroke="#000000" stroke-miterlimit="10" width="30" height="28.8"/>
		<rect x="-930.396" y="473.801" stroke="#000000" stroke-miterlimit="10" width="30.001" height="28.8"/>
	</g>
	<g>
		<rect x="-866.195" y="387.4" stroke="#000000" stroke-miterlimit="10" width="144" height="144"/>
		<rect x="-837.395" y="416.2" fill="#FFFFFF" stroke="#000000" stroke-miterlimit="10" width="86.4" height="86.399"/>
		<rect x="-779.795" y="416.2" stroke="#000000" stroke-miterlimit="10" width="28.801" height="28.8"/>
		<rect x="-808.596" y="445" stroke="#000000" stroke-miterlimit="10" width="28.801" height="28.801"/>
		<rect x="-779.795" y="445" stroke="#000000" stroke-miterlimit="10" width="28.801" height="28.801"/>
	</g>
	<g>
		<rect x="-1168.595" y="538.601" stroke="#000000" stroke-miterlimit="10" width="144" height="144"/>
		<rect x="-1139.795" y="567.399" fill="#FFFFFF" stroke="#000000" stroke-miterlimit="10" width="86.4" height="86.4"/>
		<rect x="-1082.195" y="567.399" stroke="#000000" stroke-miterlimit="10" width="28.8" height="28.801"/>
		<rect x="-1110.996" y="596.2" stroke="#000000" stroke-miterlimit="10" width="28.801" height="28.801"/>
		<rect x="-1082.195" y="596.2" stroke="#000000" stroke-miterlimit="10" width="28.8" height="28.801"/>
	</g>
	<g>
		<rect x="-1016.191" y="538.6" stroke="#000000" stroke-miterlimit="10" width="144" height="144"/>
		<rect x="-987.391" y="567.399" fill="#FFFFFF" stroke="#000000" stroke-miterlimit="10" width="86.401" height="86.4"/>
		<rect x="-958.591" y="567.399" stroke="#000000" stroke-miterlimit="10" width="28.8" height="28.8"/>
		<rect x="-987.391" y="596.199" stroke="#000000" stroke-miterlimit="10" width="28.8" height="28.801"/>
		<rect x="-929.791" y="596.199" stroke="#000000" stroke-miterlimit="10" width="28.801" height="28.801"/>
		<rect x="-958.591" y="625" stroke="#000000" stroke-miterlimit="10" width="28.8" height="28.8"/>
	</g>
	<g>
		<rect x="-866.195" y="538.6" stroke="#000000" stroke-miterlimit="10" width="144" height="144"/>
		<rect x="-837.395" y="567.399" fill="#FFFFFF" stroke="#000000" stroke-miterlimit="10" width="86.4" height="86.4"/>
		<rect x="-808.596" y="567.399" stroke="#000000" stroke-miterlimit="10" width="28.801" height="28.8"/>
		<rect x="-837.395" y="596.199" stroke="#000000" stroke-miterlimit="10" width="28.799" height="28.801"/>
		<rect x="-779.795" y="596.199" stroke="#000000" stroke-miterlimit="10" width="28.801" height="28.801"/>
		<rect x="-808.596" y="625" stroke="#000000" stroke-miterlimit="10" width="28.801" height="28.8"/>
	</g>
</g>
<g id="Layer_2">
	<g>
		<rect x="-575.801" y="69.7" fill="#ED1C24" stroke="#ED1C24" stroke-miterlimit="10" width="144" height="144"/>
		<rect x="-547.001" y="98.5" fill="#FFFFFF" stroke="#ED1C24" stroke-miterlimit="10" width="86.4" height="86.4"/>
		<rect x="-518.201" y="98.5" fill="#ED1C24" stroke="#ED1C24" stroke-miterlimit="10" width="28.801" height="28.8"/>
		<rect x="-547.001" y="127.299" fill="#ED1C24" stroke="#ED1C24" stroke-miterlimit="10" width="28.8" height="28.801"/>
		<rect x="-518.201" y="127.299" fill="#ED1C24" stroke="#ED1C24" stroke-miterlimit="10" width="28.801" height="28.801"/>
		<rect x="-489.4" y="127.299" fill="#ED1C24" stroke="#ED1C24" stroke-miterlimit="10" width="28.8" height="28.801"/>
		<rect x="-518.201" y="156.1" fill="#ED1C24" stroke="#ED1C24" stroke-miterlimit="10" width="28.801" height="28.8"/>
	</g>
	<g>
		<rect x="-415.4" y="69.7" fill="#ED1C24" stroke="#ED1C24" stroke-miterlimit="10" width="144" height="144"/>
		<rect x="-386.602" y="98.5" fill="#FFFFFF" stroke="#ED1C24" stroke-miterlimit="10" width="86.4" height="86.4"/>
		<rect x="-357.801" y="98.5" fill="#ED1C24" stroke="#ED1C24" stroke-miterlimit="10" width="28.801" height="28.8"/>
		<rect x="-386.602" y="127.299" fill="#ED1C24" stroke="#ED1C24" stroke-miterlimit="10" width="28.801" height="28.801"/>
		<rect x="-357.801" y="127.299" fill="#ED1C24" stroke="#ED1C24" stroke-miterlimit="10" width="28.801" height="28.801"/>
		<rect x="-329" y="127.299" fill="#ED1C24" stroke="#ED1C24" stroke-miterlimit="10" width="28.799" height="28.801"/>
		<rect x="-357.801" y="156.1" fill="#ED1C24" stroke="#ED1C24" stroke-miterlimit="10" width="28.801" height="28.8"/>
	</g>
	<g>
		<rect x="-575.801" y="235.3" fill="#ED1C24" stroke="#ED1C24" stroke-miterlimit="10" width="144" height="144"/>
		<rect x="-547.001" y="264.1" fill="#FFFFFF" stroke="#ED1C24" stroke-miterlimit="10" width="86.4" height="86.4"/>
		<rect x="-547.001" y="264.1" fill="#ED1C24" stroke="#ED1C24" stroke-miterlimit="10" width="28.8" height="28.8"/>
		<rect x="-518.201" y="264.1" fill="#ED1C24" stroke="#ED1C24" stroke-miterlimit="10" width="28.801" height="28.8"/>
		<rect x="-489.4" y="264.1" fill="#ED1C24" stroke="#ED1C24" stroke-miterlimit="10" width="28.8" height="28.8"/>
		<rect x="-518.201" y="292.9" fill="#ED1C24" stroke="#ED1C24" stroke-miterlimit="10" width="28.801" height="28.801"/>
		<rect x="-547.001" y="321.701" fill="#ED1C24" stroke="#ED1C24" stroke-miterlimit="10" width="28.8" height="28.8"/>
		<rect x="-518.201" y="321.701" fill="#ED1C24" stroke="#ED1C24" stroke-miterlimit="10" width="28.801" height="28.8"/>
		<rect x="-489.4" y="321.701" fill="#ED1C24" stroke="#ED1C24" stroke-miterlimit="10" width="28.8" height="28.8"/>
	</g>
	<g>
		<rect x="-415.4" y="235.3" fill="#ED1C24" stroke="#ED1C24" stroke-miterlimit="10" width="144" height="144"/>
		<rect x="-386.601" y="264.1" fill="#FFFFFF" stroke="#ED1C24" stroke-miterlimit="10" width="86.4" height="86.4"/>
		<rect x="-357.801" y="264.1" fill="#ED1C24" stroke="#ED1C24" stroke-miterlimit="10" width="28.801" height="28.8"/>
		<rect x="-329" y="292.9" fill="#ED1C24" stroke="#ED1C24" stroke-miterlimit="10" width="28.8" height="28.801"/>
		<rect x="-357.801" y="321.701" fill="#ED1C24" stroke="#ED1C24" stroke-miterlimit="10" width="28.801" height="28.8"/>
	</g>
	<g>
		<rect x="-417.4" y="388.3" stroke="#000000" stroke-miterlimit="10" width="144" height="144"/>
		<rect x="-388.601" y="417.1" fill="#FFFFFF" stroke="#000000" stroke-miterlimit="10" width="86.4" height="86.4"/>
		<rect x="-359.801" y="417.1" stroke="#000000" stroke-miterlimit="10" width="28.801" height="28.8"/>
		<rect x="-388.601" y="445.899" stroke="#000000" stroke-miterlimit="10" width="28.8" height="28.801"/>
		<rect x="-359.801" y="445.899" stroke="#000000" stroke-miterlimit="10" width="28.801" height="28.801"/>
		<rect x="-331" y="445.899" stroke="#000000" stroke-miterlimit="10" width="28.8" height="28.801"/>
		<rect x="-359.801" y="474.7" stroke="#000000" stroke-miterlimit="10" width="28.801" height="28.8"/>
	</g>
	<g>
		<rect x="-257" y="388.3" stroke="#000000" stroke-miterlimit="10" width="144" height="144"/>
		<rect x="-228.201" y="417.1" fill="#FFFFFF" stroke="#000000" stroke-miterlimit="10" width="86.4" height="86.4"/>
		<rect x="-199.4" y="417.1" stroke="#000000" stroke-miterlimit="10" width="28.801" height="28.8"/>
		<rect x="-228.201" y="445.899" stroke="#000000" stroke-miterlimit="10" width="28.801" height="28.801"/>
		<rect x="-199.4" y="445.899" stroke="#000000" stroke-miterlimit="10" width="28.801" height="28.801"/>
		<rect x="-170.6" y="445.899" stroke="#000000" stroke-miterlimit="10" width="28.799" height="28.801"/>
		<rect x="-199.4" y="474.7" stroke="#000000" stroke-miterlimit="10" width="28.801" height="28.8"/>
	</g>
	<g>
		<rect x="-417.4" y="553.9" stroke="#000000" stroke-miterlimit="10" width="144" height="144"/>
		<rect x="-388.601" y="582.7" fill="#FFFFFF" stroke="#000000" stroke-miterlimit="10" width="86.4" height="86.4"/>
		<rect x="-388.601" y="582.7" stroke="#000000" stroke-miterlimit="10" width="28.8" height="28.8"/>
		<rect x="-359.801" y="582.7" stroke="#000000" stroke-miterlimit="10" width="28.801" height="28.8"/>
		<rect x="-331" y="582.7" stroke="#000000" stroke-miterlimit="10" width="28.8" height="28.8"/>
		<rect x="-359.801" y="611.5" stroke="#000000" stroke-miterlimit="10" width="28.801" height="28.801"/>
		<rect x="-388.601" y="640.301" stroke="#000000" stroke-miterlimit="10" width="28.8" height="28.8"/>
		<rect x="-359.801" y="640.301" stroke="#000000" stroke-miterlimit="10" width="28.801" height="28.8"/>
		<rect x="-331" y="640.301" stroke="#000000" stroke-miterlimit="10" width="28.8" height="28.8"/>
	</g>
	<g>
		<rect x="-257" y="553.9" stroke="#000000" stroke-miterlimit="10" width="144" height="144"/>
		<rect x="-228.2" y="582.7" fill="#FFFFFF" stroke="#000000" stroke-miterlimit="10" width="86.4" height="86.4"/>
		<rect x="-199.4" y="582.7" stroke="#000000" stroke-miterlimit="10" width="28.801" height="28.8"/>
		<rect x="-170.6" y="611.5" stroke="#000000" stroke-miterlimit="10" width="28.8" height="28.801"/>
		<rect x="-199.4" y="640.301" stroke="#000000" stroke-miterlimit="10" width="28.801" height="28.8"/>
	</g>
</g>
<g id="Layer_3">
	<g>
		<rect x="82.3" y="88.6" fill="#ED1C24" stroke="#ED1C24" stroke-miterlimit="10" width="144" height="144"/>
		<rect x="109.3" y="117.4" fill="#FFFFFF" stroke="#ED1C24" stroke-miterlimit="10" width="90" height="86.4"/>
		<rect x="139.3" y="146.2" fill="#ED1C24" stroke="#ED1C24" stroke-miterlimit="10" width="30" height="28.801"/>
		<rect x="109.3" y="175" fill="#ED1C24" stroke="#ED1C24" stroke-miterlimit="10" width="30" height="28.8"/>
		<rect x="139.3" y="175" fill="#ED1C24" stroke="#ED1C24" stroke-miterlimit="10" width="30" height="28.8"/>
		<rect x="169.3" y="175" fill="#ED1C24" stroke="#ED1C24" stroke-miterlimit="10" width="30" height="28.8"/>
	</g>
	<g>
		<rect x="233.5" y="88.6" fill="#ED1C24" stroke="#ED1C24" stroke-miterlimit="10" width="144" height="144"/>
		<rect x="260.5" y="117.4" fill="#FFFFFF" stroke="#ED1C24" stroke-miterlimit="10" width="90" height="86.4"/>
		<rect x="290.5" y="146.2" fill="#ED1C24" stroke="#ED1C24" stroke-miterlimit="10" width="30" height="28.801"/>
		<rect x="260.5" y="175" fill="#ED1C24" stroke="#ED1C24" stroke-miterlimit="10" width="30" height="28.8"/>
		<rect x="290.5" y="175" fill="#ED1C24" stroke="#ED1C24" stroke-miterlimit="10" width="30" height="28.8"/>
		<rect x="320.5" y="175" fill="#ED1C24" stroke="#ED1C24" stroke-miterlimit="10" width="30" height="28.8"/>
	</g>
	<g>
		<rect x="384.7" y="88.6" fill="#ED1C24" stroke="#ED1C24" stroke-miterlimit="10" width="144" height="144"/>
		<rect x="411.7" y="117.4" fill="#FFFFFF" stroke="#ED1C24" stroke-miterlimit="10" width="90" height="86.4"/>
		<rect x="441.7" y="146.2" fill="#ED1C24" stroke="#ED1C24" stroke-miterlimit="10" width="30" height="28.801"/>
		<rect x="411.7" y="175" fill="#ED1C24" stroke="#ED1C24" stroke-miterlimit="10" width="30" height="28.8"/>
		<rect x="441.7" y="175" fill="#ED1C24" stroke="#ED1C24" stroke-miterlimit="10" width="30" height="28.8"/>
		<rect x="471.7" y="175" fill="#ED1C24" stroke="#ED1C24" stroke-miterlimit="10" width="30" height="28.8"/>
	</g>
	<g>
		<rect x="82.3" y="239.8" fill="#ED1C24" stroke="#ED1C24" stroke-miterlimit="10" width="144" height="144"/>
		<rect x="109.3" y="268.6" fill="#FFFFFF" stroke="#ED1C24" stroke-miterlimit="10" width="90" height="86.4"/>
		<rect x="139.3" y="297.4" fill="#ED1C24" stroke="#ED1C24" stroke-miterlimit="10" width="30" height="28.801"/>
		<rect x="109.3" y="326.201" fill="#ED1C24" stroke="#ED1C24" stroke-miterlimit="10" width="30" height="28.8"/>
		<rect x="139.3" y="326.201" fill="#ED1C24" stroke="#ED1C24" stroke-miterlimit="10" width="30" height="28.8"/>
		<rect x="169.3" y="326.201" fill="#ED1C24" stroke="#ED1C24" stroke-miterlimit="10" width="30" height="28.8"/>
	</g>
	<g>
		<rect x="233.5" y="239.8" fill="#ED1C24" stroke="#ED1C24" stroke-miterlimit="10" width="144" height="144"/>
		<rect x="260.5" y="268.6" fill="#FFFFFF" stroke="#ED1C24" stroke-miterlimit="10" width="90" height="86.4"/>
		<rect x="290.5" y="297.4" fill="#ED1C24" stroke="#ED1C24" stroke-miterlimit="10" width="30" height="28.801"/>
		<rect x="260.5" y="326.201" fill="#ED1C24" stroke="#ED1C24" stroke-miterlimit="10" width="30" height="28.8"/>
		<rect x="290.5" y="326.201" fill="#ED1C24" stroke="#ED1C24" stroke-miterlimit="10" width="30" height="28.8"/>
		<rect x="320.5" y="326.201" fill="#ED1C24" stroke="#ED1C24" stroke-miterlimit="10" width="30" height="28.8"/>
	</g>
	<g>
		<rect x="384.7" y="239.8" fill="#ED1C24" stroke="#ED1C24" stroke-miterlimit="10" width="144" height="144"/>
		<rect x="411.7" y="268.6" fill="#FFFFFF" stroke="#ED1C24" stroke-miterlimit="10" width="90" height="86.4"/>
		<rect x="441.7" y="297.4" fill="#ED1C24" stroke="#ED1C24" stroke-miterlimit="10" width="30" height="28.801"/>
		<rect x="411.7" y="326.201" fill="#ED1C24" stroke="#ED1C24" stroke-miterlimit="10" width="30" height="28.8"/>
		<rect x="441.7" y="326.201" fill="#ED1C24" stroke="#ED1C24" stroke-miterlimit="10" width="30" height="28.8"/>
		<rect x="471.7" y="326.201" fill="#ED1C24" stroke="#ED1C24" stroke-miterlimit="10" width="30" height="28.8"/>
	</g>
	<g>
		<rect x="82.3" y="391" fill="#ED1C24" stroke="#ED1C24" stroke-miterlimit="10" width="144" height="144"/>
		<rect x="109.3" y="419.799" fill="#FFFFFF" stroke="#ED1C24" stroke-miterlimit="10" width="90" height="86.402"/>
		<rect x="139.3" y="448.6" fill="#ED1C24" stroke="#ED1C24" stroke-miterlimit="10" width="30" height="28.801"/>
		<rect x="109.3" y="477.4" fill="#ED1C24" stroke="#ED1C24" stroke-miterlimit="10" width="30" height="28.801"/>
		<rect x="139.3" y="477.4" fill="#ED1C24" stroke="#ED1C24" stroke-miterlimit="10" width="30" height="28.801"/>
		<rect x="169.3" y="477.4" fill="#ED1C24" stroke="#ED1C24" stroke-miterlimit="10" width="30" height="28.801"/>
	</g>
	<g>
		<rect x="233.499" y="391" fill="#ED1C24" stroke="#ED1C24" stroke-miterlimit="10" width="144.001" height="144"/>
		<rect x="260.499" y="419.799" fill="#FFFFFF" stroke="#ED1C24" stroke-miterlimit="10" width="90.001" height="86.402"/>
		<rect x="290.499" y="448.6" fill="#ED1C24" stroke="#ED1C24" stroke-miterlimit="10" width="30" height="28.801"/>
		<rect x="260.499" y="477.4" fill="#ED1C24" stroke="#ED1C24" stroke-miterlimit="10" width="30" height="28.801"/>
		<rect x="290.499" y="477.4" fill="#ED1C24" stroke="#ED1C24" stroke-miterlimit="10" width="30" height="28.801"/>
		<rect x="320.499" y="477.4" fill="#ED1C24" stroke="#ED1C24" stroke-miterlimit="10" width="30.001" height="28.801"/>
	</g>
	<g>
		<rect x="384.7" y="391" fill="#ED1C24" stroke="#ED1C24" stroke-miterlimit="10" width="144" height="144"/>
		<rect x="413.5" y="419.799" fill="#FFFFFF" stroke="#ED1C24" stroke-miterlimit="10" width="86.4" height="86.4"/>
		<rect x="471.101" y="419.799" fill="#ED1C24" stroke="#ED1C24" stroke-miterlimit="10" width="28.8" height="28.801"/>
		<rect x="442.3" y="448.6" fill="#ED1C24" stroke="#ED1C24" stroke-miterlimit="10" width="28.801" height="28.801"/>
		<rect x="471.101" y="448.6" fill="#ED1C24" stroke="#ED1C24" stroke-miterlimit="10" width="28.8" height="28.801"/>
	</g>
	<g>
		<rect x="82.3" y="542.201" fill="#ED1C24" stroke="#ED1C24" stroke-miterlimit="10" width="144" height="144"/>
		<rect x="111.1" y="571" fill="#FFFFFF" stroke="#ED1C24" stroke-miterlimit="10" width="86.4" height="86.4"/>
		<rect x="168.7" y="571" fill="#ED1C24" stroke="#ED1C24" stroke-miterlimit="10" width="28.8" height="28.801"/>
		<rect x="139.899" y="599.801" fill="#ED1C24" stroke="#ED1C24" stroke-miterlimit="10" width="28.801" height="28.801"/>
		<rect x="168.7" y="599.801" fill="#ED1C24" stroke="#ED1C24" stroke-miterlimit="10" width="28.8" height="28.801"/>
	</g>
	<g>
		<rect x="234.704" y="542.199" fill="#ED1C24" stroke="#ED1C24" stroke-miterlimit="10" width="144" height="144"/>
		<rect x="263.504" y="571" fill="#FFFFFF" stroke="#ED1C24" stroke-miterlimit="10" width="86.4" height="86.4"/>
		<rect x="292.304" y="571" fill="#ED1C24" stroke="#ED1C24" stroke-miterlimit="10" width="28.801" height="28.799"/>
		<rect x="263.504" y="599.799" fill="#ED1C24" stroke="#ED1C24" stroke-miterlimit="10" width="28.8" height="28.801"/>
		<rect x="321.104" y="599.799" fill="#ED1C24" stroke="#ED1C24" stroke-miterlimit="10" width="28.8" height="28.801"/>
		<rect x="292.304" y="628.6" fill="#ED1C24" stroke="#ED1C24" stroke-miterlimit="10" width="28.801" height="28.801"/>
	</g>
	<g>
		<rect x="384.7" y="542.199" fill="#ED1C24" stroke="#ED1C24" stroke-miterlimit="10" width="144" height="144"/>
		<rect x="413.5" y="571" fill="#FFFFFF" stroke="#ED1C24" stroke-miterlimit="10" width="86.4" height="86.4"/>
		<rect x="442.3" y="571" fill="#ED1C24" stroke="#ED1C24" stroke-miterlimit="10" width="28.801" height="28.799"/>
		<rect x="413.5" y="599.799" fill="#ED1C24" stroke="#ED1C24" stroke-miterlimit="10" width="28.8" height="28.801"/>
		<rect x="471.101" y="599.799" fill="#ED1C24" stroke="#ED1C24" stroke-miterlimit="10" width="28.8" height="28.801"/>
		<rect x="442.3" y="628.6" fill="#ED1C24" stroke="#ED1C24" stroke-miterlimit="10" width="28.801" height="28.801"/>
	</g>
</g>
</svg>
